<?xml version="1.0" standalone="no"?>
<!DOCTYPE svg PUBLIC "-//W3C//DTD SVG 20010904//EN"
 "http://www.w3.org/TR/2001/REC-SVG-20010904/DTD/svg10.dtd">
<svg version="1.0" xmlns="http://www.w3.org/2000/svg"
 width="640.000000pt" height="480.000000pt" viewBox="0 0 640.000000 480.000000"
 preserveAspectRatio="xMidYMid meet">

<g transform="translate(0.000000,480.000000) scale(0.100000,-0.100000)"
fill="#000000" stroke="none">
<path d="M2301 3991 c-17 -33 -22 -104 -9 -113 9 -5 4 -8 -15 -8 -27 0 -27 -1
-11 -25 8 -13 13 -29 9 -35 -3 -5 -1 -10 5 -10 7 0 -2 -16 -18 -35 -27 -30
-52 -88 -52 -122 0 -6 7 -24 15 -40 8 -15 17 -44 20 -64 4 -25 18 -48 46 -74
l41 -38 -22 -17 c-20 -15 -24 -32 -37 -166 -16 -164 -21 -176 -89 -189 -41 -7
-49 -18 -68 -89 -8 -33 -22 -66 -30 -74 -12 -13 -7 -22 47 -77 34 -34 69 -65
77 -67 17 -6 17 10 -13 -320 -13 -134 -12 -137 7 -142 19 -5 16 -10 -24 -52
-25 -25 -71 -66 -102 -90 -52 -40 -58 -43 -68 -27 -8 13 -13 14 -16 6 -3 -7
-12 -13 -20 -13 -10 0 -13 -8 -10 -27 3 -16 8 -55 12 -88 9 -80 12 -97 20
-104 7 -6 0 88 -11 144 -4 24 -3 26 5 13 6 -10 13 -53 17 -98 3 -44 11 -84 17
-89 6 -4 52 -23 101 -41 103 -38 115 -45 86 -55 -28 -9 -28 -15 18 -287 46
-266 47 -280 37 -328 -8 -39 -74 -253 -113 -370 -33 -97 -39 -203 -20 -353 10
-80 12 -131 6 -159 -6 -22 -8 -42 -6 -45 3 -2 21 -7 41 -10 30 -5 35 -3 31 9
-4 10 8 26 35 46 26 19 36 32 28 35 -8 3 -4 8 12 15 l25 10 -27 12 c-38 18
-55 61 -66 170 -11 116 -5 147 78 405 33 105 63 215 67 246 7 72 -20 237 -59
357 -16 51 -28 95 -26 97 2 2 35 -89 72 -202 68 -204 69 -208 63 -287 -3 -45
-20 -162 -38 -261 -51 -292 -49 -316 43 -480 48 -85 62 -120 62 -152 1 -42 1
-43 36 -42 53 0 111 13 110 23 -1 5 3 12 10 16 7 4 -5 20 -33 43 -35 29 -59
64 -111 168 -36 72 -66 144 -66 160 0 16 17 125 37 242 25 147 37 242 37 312
0 100 0 100 -83 334 -99 279 -99 289 -24 354 106 92 106 93 99 177 -3 41 -11
97 -18 125 -11 42 -18 52 -49 67 -44 20 -99 87 -109 131 -4 18 0 103 8 190
l16 159 23 -45 c12 -25 34 -55 49 -66 15 -12 24 -21 20 -21 -4 0 -3 -8 3 -17
5 -10 16 -18 25 -18 9 0 40 -50 79 -127 52 -103 62 -130 51 -139 -18 -15 3
-48 26 -42 13 3 27 -13 54 -63 37 -66 37 -74 3 -87 -5 -1 -5 -11 -1 -21 5 -13
14 -17 35 -12 26 5 31 -1 105 -126 88 -150 132 -203 189 -229 48 -22 123 -24
169 -5 48 20 103 81 124 139 l19 49 31 -51 c36 -58 39 -73 15 -70 -10 2 -47
-12 -81 -30 -46 -23 -62 -36 -58 -47 3 -9 1 -12 -4 -9 -11 7 -14 -8 -4 -18 9
-8 66 14 88 35 11 10 27 18 37 18 9 0 24 10 33 23 l17 22 -11 -23 c-6 -13 -22
-28 -35 -34 -14 -6 -22 -14 -20 -18 2 -3 -17 -12 -43 -19 -36 -9 -48 -17 -49
-31 -4 -46 133 -17 287 61 74 37 140 86 140 104 0 20 -22 19 -51 -4 -42 -32
-93 -55 -97 -42 -2 6 -12 11 -21 11 -23 0 -174 251 -205 342 -13 35 -37 91
-54 124 l-31 61 25 12 c14 6 36 8 50 5 31 -8 30 2 -4 47 l-28 37 -21 -24 c-24
-27 -43 -31 -43 -9 0 8 4 15 9 15 17 0 23 41 11 69 -11 28 -58 54 -140 80 -19
6 -55 29 -80 52 -25 22 -30 29 -11 15 64 -51 85 -57 124 -41 20 8 38 18 41 23
5 8 -50 102 -59 102 -3 0 -3 -15 0 -33 5 -24 2 -37 -9 -47 -9 -7 -18 -11 -20
-9 -20 24 -93 186 -87 192 5 5 12 4 15 -2 4 -6 13 -11 19 -11 7 0 6 4 -3 10
-9 6 -10 10 -3 10 7 0 17 -9 23 -20 13 -25 32 -25 54 -1 21 23 18 50 -8 65
-14 9 -20 8 -29 -5 -10 -15 -12 -15 -28 4 -14 18 -20 20 -42 10 -36 -17 -42
-9 -133 165 -91 175 -151 281 -172 304 -13 16 -17 16 -44 2 l-29 -15 19 -27
c11 -15 52 -90 93 -167 l73 -139 -39 24 c-46 28 -121 33 -174 10 l-35 -14 30
-13 29 -14 -30 6 c-16 4 -37 13 -46 21 -9 8 -19 11 -24 7 -4 -5 -5 0 -2 9 5
13 -7 28 -46 57 l-52 40 9 93 c13 142 21 163 80 221 28 29 71 64 93 79 48 31
77 79 75 123 -1 25 0 27 8 10 6 -14 9 -1 9 46 1 51 -3 72 -18 91 -31 39 -31
62 1 66 27 3 49 32 24 32 -26 0 -39 30 -37 90 1 58 0 60 -25 60 -14 0 -35 5
-47 12 -13 7 -65 13 -125 14 -85 1 -104 -2 -111 -15z m-3 -924 c8 -10 -2 -20
-46 -43 l-56 -29 -12 -75 c-15 -94 -11 -110 33 -140 19 -13 30 -26 24 -28 -6
-2 -32 13 -58 34 l-46 37 6 81 c3 45 8 88 12 97 5 14 108 78 126 79 4 0 11 -6
17 -13z m388 -172 c31 -20 77 -82 79 -106 1 -11 15 -34 31 -52 16 -18 -9 6
-56 53 -47 47 -98 96 -115 109 l-30 22 34 -5 c19 -4 45 -13 57 -21z m-97 -79
c25 -19 56 -48 68 -64 l22 -30 -47 -30 c-94 -58 -111 -67 -122 -56 -19 19 -30
124 -19 171 14 54 34 56 98 9z m241 -249 c48 -51 79 -92 74 -96 -5 -5 -62 -43
-126 -85 l-117 -75 -24 42 c-50 85 -97 188 -92 197 4 6 11 10 16 10 6 0 36 17
67 37 70 45 105 64 113 60 3 -1 43 -42 89 -90z m150 -129 c0 -6 21 -47 46 -90
25 -44 44 -81 42 -83 -7 -7 -301 -146 -303 -143 -1 2 -20 35 -42 75 l-41 71
137 90 c135 90 161 103 161 80z m50 -8 c18 -12 2 -12 -25 0 -13 6 -15 9 -5 9
8 0 22 -4 30 -9z m150 -10 c0 -5 -2 -10 -4 -10 -3 0 -8 5 -11 10 -3 6 -1 10 4
10 6 0 11 -4 11 -10z m-30 -290 c24 -41 49 -82 57 -91 25 -29 35 -128 18 -184
-16 -54 -51 -104 -75 -109 -8 -2 -28 -6 -43 -11 -37 -10 -109 18 -141 55 -27
33 -170 279 -165 285 17 16 294 144 300 138 4 -5 26 -42 49 -83z m-863 -41 c7
-13 13 -35 13 -49 0 -34 -34 -88 -65 -102 -22 -10 -29 -8 -50 12 -50 47 -41
135 19 171 26 16 33 17 51 5 11 -7 26 -24 32 -37z m-223 -168 c5 -42 4 -61 -3
-57 -6 4 -8 13 -4 21 3 8 1 15 -3 15 -5 0 -9 19 -10 43 0 23 -4 65 -7 92 l-6
50 13 -51 c7 -27 16 -78 20 -113z m185 -223 c11 -34 19 -63 17 -65 -2 -3 -12
20 -21 49 -10 29 -20 59 -23 66 -2 6 -2 12 1 12 3 0 15 -28 26 -62z"/>
<path d="M2192 3660 c0 -14 2 -19 5 -12 2 6 2 18 0 25 -3 6 -5 1 -5 -13z"/>
<path d="M617 3200 c-16 -5 -46 -27 -68 -49 -21 -23 -47 -41 -59 -41 -11 0
-33 -14 -50 -31 -70 -74 -83 -79 -191 -73 l-98 6 -48 -49 c-26 -27 -60 -58
-76 -70 l-27 -21 2 -249 c3 -248 3 -248 21 -209 22 46 85 106 111 106 11 0 31
11 45 24 31 28 96 49 119 37 10 -5 34 -17 55 -27 21 -11 47 -27 57 -36 27 -25
54 -22 86 7 24 23 32 26 50 24 11 -1 44 44 44 60 0 9 -19 31 -42 49 -35 27
-47 31 -80 26 -29 -5 -43 -2 -58 11 -20 18 -28 65 -11 65 11 0 9 40 -3 59 -15
23 16 91 53 120 84 65 148 79 231 52 34 -12 67 -18 72 -15 12 8 68 -45 68 -63
0 -8 7 -16 15 -19 8 -4 22 -31 31 -60 14 -50 55 -104 77 -104 8 0 36 -20 95
-70 24 -21 48 -27 38 -11 -4 5 -1 11 6 13 7 3 13 15 13 29 0 13 5 23 10 22 6
-1 11 8 11 20 0 14 -26 49 -73 96 -41 41 -83 92 -95 113 -22 39 -41 45 -83 29
-11 -5 -28 -3 -38 3 -13 8 -20 8 -26 -2 -6 -10 -10 -8 -14 8 -3 12 -10 19 -16
16 -6 -4 -17 8 -25 26 -9 18 -29 57 -45 86 -16 29 -31 62 -33 74 -4 26 -14 29
-51 18z"/>
<path d="M3925 2050 c-3 -5 -19 -10 -35 -10 -57 0 -76 -82 -39 -165 18 -38 85
-108 98 -101 5 3 22 -1 37 -9 16 -8 37 -15 46 -15 9 0 20 -4 23 -10 13 -20
159 0 185 26 18 18 -10 86 -56 133 -24 25 -44 50 -44 55 0 17 -62 62 -95 69
-16 4 -41 10 -54 13 -13 3 -32 9 -42 15 -11 6 -20 6 -24 -1z"/>
<path d="M350 1972 c0 -18 -51 -31 -112 -27 -35 2 -91 0 -126 -4 -45 -5 -70
-4 -88 5 l-24 13 0 -145 c0 -151 6 -174 44 -174 9 0 16 -7 16 -15 0 -9 13 -24
29 -33 54 -31 65 -82 24 -109 -28 -19 -30 -19 -80 -21 l-33 -2 0 -590 0 -591
77 3 78 3 -3 42 c-3 42 28 123 48 123 6 0 10 6 10 14 0 8 9 18 20 21 11 3 20
13 20 21 0 20 27 29 44 15 7 -6 27 -8 45 -5 32 7 43 -1 98 -70 9 -10 23 -13
46 -9 32 5 35 3 50 -36 10 -23 17 -48 17 -55 0 -7 7 -19 15 -26 8 -7 12 -16 9
-21 -3 -5 8 -9 24 -9 25 0 29 3 26 26 -1 15 3 28 12 31 16 6 20 63 4 63 -14 0
-12 32 4 55 30 44 2 156 -42 167 -18 5 -53 68 -66 120 -5 21 0 33 24 56 17 17
30 41 30 54 1 13 7 34 15 48 17 30 19 79 4 117 -6 15 -11 64 -12 108 -1 67 3
86 22 117 23 38 90 77 156 92 17 4 54 14 84 22 l53 15 -23 25 c-13 14 -42 34
-64 45 -22 11 -56 28 -75 39 -19 11 -44 20 -55 20 -32 1 -98 52 -118 92 -12
25 -27 39 -46 43 -38 8 -64 55 -58 106 2 22 1 42 -4 45 -4 2 -6 11 -2 19 3 9
-1 15 -9 15 -8 0 -24 10 -36 23 -17 18 -20 30 -16 59 5 29 2 38 -17 52 -26 18
-39 20 -39 8z m-46 -753 c13 -6 32 -29 41 -53 10 -22 28 -63 40 -91 37 -83 58
-179 50 -227 -10 -59 -54 -148 -74 -148 -9 0 -31 9 -49 20 -18 11 -36 19 -40
18 -18 -6 -87 52 -118 98 -16 24 -54 153 -54 184 0 19 49 119 73 150 20 25 71
59 89 60 9 0 28 -5 42 -11z"/>
<path d="M3006 1371 c-16 -26 69 -61 148 -61 57 0 43 23 -27 44 -74 23 -114
29 -121 17z"/>
<path d="M5093 1330 c-42 -25 -42 -52 -3 -92 17 -16 30 -31 30 -33 0 -2 15
-26 33 -52 l32 -48 2 -350 c1 -192 5 -361 9 -375 4 -14 7 -28 6 -32 -1 -5 24
-7 56 -7 31 1 48 4 38 6 -13 4 -15 7 -7 13 15 9 21 44 27 160 3 52 10 89 18
95 7 6 13 17 14 25 1 8 9 53 18 100 10 50 16 131 16 197 0 108 1 112 24 128
24 15 29 53 11 71 -33 33 45 77 157 89 38 4 87 16 108 27 l39 21 -39 23 c-35
21 -55 24 -188 28 -82 3 -173 10 -203 16 -87 16 -162 13 -198 -10z"/>
<path d="M3345 1330 c8 -13 35 -13 55 0 11 7 5 10 -23 10 -23 0 -36 -4 -32
-10z"/>
<path d="M5674 1025 c3 -9 6 -19 6 -21 0 -2 8 -4 19 -4 10 0 37 -18 59 -40 29
-29 48 -40 70 -40 17 0 32 -3 34 -7 6 -15 70 -45 77 -37 3 5 15 14 26 20 56
31 3 95 -95 114 -36 7 -84 14 -107 15 -23 1 -54 6 -69 9 -22 6 -25 4 -20 -9z"/>
<path d="M3994 557 c-17 -17 -35 -42 -38 -54 -4 -13 -13 -23 -20 -23 -7 0 -20
-18 -29 -39 -10 -22 -27 -42 -40 -45 -21 -7 -21 -7 -2 -16 11 -5 14 -9 6 -9
-7 -1 -11 -7 -8 -15 4 -9 -1 -17 -11 -19 -9 -3 57 -5 148 -5 91 0 160 2 154 4
-7 3 -10 14 -7 25 3 10 -2 60 -12 110 -13 67 -23 93 -39 104 -33 24 -68 18
-102 -18z"/>
<path d="M1742 332 c-11 -11 -26 -22 -33 -25 -8 -3 6 -6 31 -6 25 0 52 4 60
10 13 9 12 10 -2 5 -12 -3 -18 0 -18 9 0 23 -18 27 -38 7z"/>
<path d="M760 309 c0 -6 -8 -9 -20 -6 -11 3 -22 2 -24 -2 -3 -4 8 -8 24 -9 30
-2 48 12 30 23 -5 3 -10 1 -10 -6z"/>
<path d="M1780 245 c8 -10 9 -15 2 -15 -6 0 -9 -6 -6 -14 11 -29 113 -59 244
-72 82 -8 100 -13 100 -29 0 -7 -4 -16 -9 -19 -11 -7 -293 -13 -1116 -26 -352
-5 -720 -13 -817 -16 l-178 -6 0 -24 0 -24 3200 0 3200 0 0 66 0 66 -927 -6
c-1207 -8 -1945 -15 -2163 -21 -96 -3 -393 -8 -660 -11 -446 -5 -483 -4 -463
11 18 12 46 15 138 14 63 0 115 -5 115 -10 0 -5 43 -7 98 -4 53 2 210 7 349
10 367 8 532 27 519 60 -2 7 1 18 7 25 9 9 3 11 -28 6 -131 -19 -416 -28 -707
-23 -374 6 -836 39 -882 63 -26 13 -28 13 -16 -1z"/>
</g>
</svg>
